<svg xmlns="http://www.w3.org/2000/svg" viewBox="0 0 692.81 335.05"><defs><style>.cls-1{fill:#595a5c;}.cls-2{fill:#ed2224;}.cls-3{fill:#43ade2;}.cls-4{fill:#22b466;}.cls-5{fill:#fee600;}.cls-6{fill:#f390bb;}</style></defs><g id="Layer_2" data-name="Layer 2"><g id="Layer_1-2" data-name="Layer 1"><path class="cls-1" d="M227.51,243.07q-.18-2.34-.37-6c-.12-2.48-.21-5.16-.29-8.05s-.14-5.76-.2-8.62-.11-5.49-.15-7.92-.05-4.37-.05-5.83a20.64,20.64,0,0,1,2.36-.5c1-.15,2-.3,3.13-.44s2.14-.24,3.13-.33,1.78-.12,2.39-.12c0,.41,0,.91.07,1.5s.05,1.19.06,1.83,0,1.2,0,1.72v1.17a6.79,6.79,0,0,1,1-1.8,11.54,11.54,0,0,1,2.22-2.19,12.58,12.58,0,0,1,3.42-1.85,13.24,13.24,0,0,1,4.64-.75,8.93,8.93,0,0,1,4.28.95,9.19,9.19,0,0,1,2.93,2.49,12.58,12.58,0,0,1,1.83,3.33,13.65,13.65,0,0,1,.53,1.79c.13.61.24,1.21.31,1.79a15.7,15.7,0,0,1,2.69-5.1,15.07,15.07,0,0,1,4.7-4,13.26,13.26,0,0,1,6.47-1.55,14.78,14.78,0,0,1,7.23,1.57,10.79,10.79,0,0,1,4.41,4.65,23.58,23.58,0,0,1,2.19,7.53,73.91,73.91,0,0,1,.62,10.21c0,1.51,0,3.1-.09,4.76s-.14,3.33-.23,5-.2,3.32-.3,4.9l-2.74.13c-.95,0-1.9.05-2.85.05s-2,0-2.93-.05-2-.09-3-.17c.48-3.63.89-7,1.2-10a78.74,78.74,0,0,0,.48-8.07,20.51,20.51,0,0,0-1.15-7.73,4,4,0,0,0-3.94-2.69,5.57,5.57,0,0,0-4.09,1.54,10.07,10.07,0,0,0-2.45,4.24,31.08,31.08,0,0,0-1.27,6.27q-.37,3.57-.53,7.63c-.05,1.37-.1,2.79-.14,4.28s-.08,3-.08,4.54l-2.06.09c-.89,0-1.83.05-2.8.05-1.15,0-2.26,0-3.33-.05a21.23,21.23,0,0,1-2.34-.17c0-1.65,0-3.21,0-4.66v-4.52q0-4.17-.18-7.7a35,35,0,0,0-.81-6.15,9.81,9.81,0,0,0-1.84-4.07,4.11,4.11,0,0,0-3.32-1.47,6.69,6.69,0,0,0-2.78.62,10.6,10.6,0,0,0-2.47,1.61,10.3,10.3,0,0,0-1.86,2.18,8,8,0,0,0-1,2.36c.14,3.88.3,7.41.47,10.61s.33,5.8.48,7.83.24,3.23.29,3.62c-.27,0-.83.05-1.68.07s-1.6,0-2.23,0c-1.54,0-3.08,0-4.61-.11S228.22,243.14,227.51,243.07Z"/><path class="cls-1" d="M302.18,204.48a8.19,8.19,0,0,1-5.55-1.93,6.93,6.93,0,0,1-1.15-8.76,7.09,7.09,0,0,1,2.76-2.36,8.11,8.11,0,0,1,3.57-.82,6.9,6.9,0,0,1,5.07,2,6.83,6.83,0,0,1,2,5.08,6.68,6.68,0,0,1-1.9,4.85A6.43,6.43,0,0,1,302.18,204.48Zm4.09,38.22-2.36.17c-1.15.08-2.38.13-3.67.13-.95,0-1.91,0-2.87-.09s-1.91-.14-2.84-.24c.1-.64.23-1.93.38-3.88s.33-4.26.5-6.93.33-5.43.49-8.27.28-5.51.37-8,.13-4.49.13-6l2.15-.11,3.08-.13,3.14-.11c1,0,1.8-.06,2.38-.06.12.79.22,2,.29,3.68s.11,3.54.11,5.62,0,4.57-.09,7.06-.14,4.89-.25,7.22-.25,4.38-.42,6.15A36.13,36.13,0,0,1,306.27,242.7Z"/><path class="cls-1" d="M349.48,235a14.91,14.91,0,0,1-3.33,3.79,18.44,18.44,0,0,1-5.53,3.11,21.55,21.55,0,0,1-7.57,1.22,16.76,16.76,0,0,1-9.62-2.74,18.12,18.12,0,0,1-6.27-7.35,24.31,24.31,0,0,1,.07-20.45,18.53,18.53,0,0,1,22.59-8.86,15.83,15.83,0,0,1,5,3,17.11,17.11,0,0,1,3.6,4.54l-8,4.5c-.1-.22-.27-.54-.51-.95a6.29,6.29,0,0,0-1.12-1.32,6.38,6.38,0,0,0-1.92-1.17,7.79,7.79,0,0,0-2.93-.47,8.28,8.28,0,0,0-4.46,1.13,7.09,7.09,0,0,0-2.76,3.22,11.77,11.77,0,0,0-.94,4.9,16.68,16.68,0,0,0,.7,4.7,8.64,8.64,0,0,0,2.34,3.93,6.25,6.25,0,0,0,4.5,1.58,8.62,8.62,0,0,0,3.22-.59,10.27,10.27,0,0,0,2.52-1.41,13.07,13.07,0,0,0,1.72-1.55q.66-.74.84-1Z"/><path class="cls-1" d="M364.44,210a10.54,10.54,0,0,1,2.58-3.15,14.34,14.34,0,0,1,4.13-2.45,13.81,13.81,0,0,1,5.11-1,17.22,17.22,0,0,1,3.32.33,6.36,6.36,0,0,1,2.45.88l-2.26,11.63c-.54-.22-1.24-.46-2.09-.71a10,10,0,0,0-2.92-.39,10.13,10.13,0,0,0-3.28.55,10.45,10.45,0,0,0-2.94,1.58,11.08,11.08,0,0,0-2.38,2.45c.24,1.44.52,3.25.82,5.43s.59,4.43.86,6.75.49,4.43.66,6.33.26,3.29.26,4.17c-1.71.22-3.69.36-5.93.44s-4.4.11-6.48.11q0-3.08-.16-7t-.46-8.19q-.28-4.26-.71-8.42t-.95-7.7c-.36-2.36-.73-4.38-1.12-6,1.17-.35,2.46-.66,3.88-1s2.69-.54,3.84-.72,1.88-.28,2.19-.31a22.65,22.65,0,0,1,1,3A14.6,14.6,0,0,1,364.44,210Z"/><path class="cls-1" d="M404,243.58q-9.71,0-14.6-5.14t-4.9-14.94A21.45,21.45,0,0,1,387,212.63a16.18,16.18,0,0,1,7-6.55,23.31,23.31,0,0,1,10.37-2.19,17.13,17.13,0,0,1,10,2.74,16.58,16.58,0,0,1,5.94,7.58,29.23,29.23,0,0,1,2,11.15,20.75,20.75,0,0,1-2.12,9.63,15,15,0,0,1-6.2,6.34A20.41,20.41,0,0,1,404,243.58Zm-.41-10.5a8.75,8.75,0,0,0,3.57-.69,7.09,7.09,0,0,0,2.63-2,8.68,8.68,0,0,0,1.63-3,12.68,12.68,0,0,0,.55-3.84,16.49,16.49,0,0,0-.93-5.76,8.57,8.57,0,0,0-2.76-3.92,7.11,7.11,0,0,0-4.47-1.41,7.31,7.31,0,0,0-4.72,1.47,8.44,8.44,0,0,0-2.68,3.82,14.41,14.41,0,0,0-.86,5,12.56,12.56,0,0,0,2.06,7.43A6.87,6.87,0,0,0,403.58,233.08Z"/><path class="cls-1" d="M234.21,278.5a8.18,8.18,0,0,1-5.55-1.92,6.41,6.41,0,0,1-2.21-5.07,6.35,6.35,0,0,1,1.06-3.7,7.09,7.09,0,0,1,2.76-2.36,8.25,8.25,0,0,1,3.57-.82,6.9,6.9,0,0,1,5.07,2,6.83,6.83,0,0,1,2,5.08,6.68,6.68,0,0,1-1.9,4.85A6.43,6.43,0,0,1,234.21,278.5Zm4.09,38.23c-.41,0-1.2.07-2.36.16s-2.38.13-3.67.13q-1.43,0-2.88-.09c-1-.06-1.9-.14-2.83-.24.1-.64.22-1.93.38-3.88s.33-4.26.5-6.93.33-5.43.49-8.27.28-5.5.37-8,.13-4.49.13-6l2.15-.11,3.08-.13,3.14-.11c1,0,1.8,0,2.38,0a36.47,36.47,0,0,1,.29,3.67c.08,1.67.11,3.54.11,5.62s0,4.57-.09,7.06-.14,4.89-.25,7.22-.25,4.38-.42,6.15A36.84,36.84,0,0,1,238.3,316.73Z"/><path class="cls-1" d="M260.69,317.31l-2.71,0-3.29-.05-3.13-.11q-1.77-.08-2.43-.15c.22-2.05.41-4.36.57-7s.28-5.45.36-8.6.16-6.58.2-10.31.08-7.77.08-12.11c.92-.12,2-.22,3.31-.29s2.57-.11,3.86-.11c.9,0,1.77,0,2.61.07s1.6.12,2.25.22c0,.22,0,.66,0,1.33s0,1.41,0,2.2,0,1.51-.05,2.14a12.15,12.15,0,0,1,3.11-2.91,22.24,22.24,0,0,1,5-2.58,16.68,16.68,0,0,1,5.89-1.06q5.59,0,8.56,2.25A11.55,11.55,0,0,1,289,287a48.24,48.24,0,0,1,1.1,11.21c0,1.57-.05,3.39-.13,5.47s-.21,4.28-.39,6.57-.39,4.51-.65,6.66c-.49,0-1.27.09-2.33.13s-2.17,0-3.34,0-2.43,0-3.55,0-1.95-.08-2.49-.13c.27-1.37.55-3.07.86-5.12s.57-4.23.8-6.55a65,65,0,0,0,.35-6.7,25.3,25.3,0,0,0-.49-5.34,6.51,6.51,0,0,0-1.87-3.53,5.77,5.77,0,0,0-4-1.26,11.77,11.77,0,0,0-4.21.77,18,18,0,0,0-3.66,1.88,26.56,26.56,0,0,0-2.81,2.18c0,3.85-.12,7.33-.3,10.44s-.35,5.81-.54,8.11S260.89,315.92,260.69,317.31Z"/><path class="cls-1" d="M319.48,276.89q2.59.44,4.86,1c1.52.39,2.78.73,3.79,1s1.63.48,1.85.58q-.74,2.93-1.74,6.53c-.67,2.4-1.41,4.92-2.23,7.54s-1.68,5.25-2.58,7.9-1.82,5.22-2.76,7.72-1.86,4.8-2.76,6.89a29.05,29.05,0,0,1-4.76.33c-.93,0-1.82,0-2.69-.11s-1.6-.14-2.21-.22q-1.9-4-3.7-8.39t-3.49-9.09c-1.13-3.13-2.23-6.31-3.27-9.55s-2.07-6.51-3-9.81l1.81-.38c.84-.18,1.77-.4,2.78-.64s2-.49,3-.75l2.42-.64c.36,1.46.84,3.19,1.42,5.18s1.23,4.06,1.92,6.22,1.39,4.24,2.07,6.25,1.3,3.8,1.85,5.36,1,2.72,1.26,3.48l-.44.18c.44-1.39.88-2.85,1.34-4.37s.91-3.14,1.39-4.83.94-3.47,1.39-5.32.89-3.8,1.31-5.82S319.09,279.06,319.48,276.89Z"/><path class="cls-1" d="M369.63,310.25a15.66,15.66,0,0,1-2.58,2.45,18.34,18.34,0,0,1-3.67,2.18,22.69,22.69,0,0,1-4.89,1.53,30.33,30.33,0,0,1-6.12.57,22,22,0,0,1-9.81-2.1,15.49,15.49,0,0,1-6.69-6.26,20.27,20.27,0,0,1-2.42-10.33A22.21,22.21,0,0,1,336,287.51a17.91,17.91,0,0,1,7-7.13,20.73,20.73,0,0,1,10.42-2.54q7.54,0,11.88,4.19t4.51,11.61a23.86,23.86,0,0,1,0,2.42c0,.73-.15,1.52-.29,2.37l-2.35-.09-4-.09c-1.5,0-2.91-.05-4.24-.09s-2.31-.06-3-.06a61.55,61.55,0,0,0-6.16.3c-2,.19-3.65.4-5,.62a9.36,9.36,0,0,0,.1,1.3,8,8,0,0,0,.27,1.22,5.61,5.61,0,0,0,1.67,2.56,8.15,8.15,0,0,0,2.85,1.63,11.38,11.38,0,0,0,6.62.15,11.12,11.12,0,0,0,2.58-1.12,15.47,15.47,0,0,0,2.14-1.52c.64-.54,1.25-1.09,1.81-1.62.15.12.52.48,1.12,1.08s1.28,1.33,2,2.21,1.5,1.79,2.18,2.72A15.32,15.32,0,0,1,369.63,310.25Zm-24.54-18.07c1.09-.17,2.45-.33,4.06-.48s3.47-.22,5.59-.22c1.15,0,2.17,0,3.06,0s1.52.05,1.88.07a7.06,7.06,0,0,0-.22-1.68,6.77,6.77,0,0,0-1.17-2.36,6.58,6.58,0,0,0-2.19-1.83,6.81,6.81,0,0,0-3.18-.71,7.87,7.87,0,0,0-4.08,1,7.41,7.41,0,0,0-2.69,2.67A7.71,7.71,0,0,0,345.09,292.18Z"/><path class="cls-1" d="M392.13,319.69a28,28,0,0,1-7.86-1,29,29,0,0,1-6-2.44,15,15,0,0,1-3.57-2.56,20.15,20.15,0,0,1,.86-2c.43-.9.93-1.88,1.52-2.93s1.17-2,1.76-2.92a11,11,0,0,1,1.57-2q1.75,1.5,3.8,2.94a22.93,22.93,0,0,0,4.21,2.36,10.35,10.35,0,0,0,4,.91,8.33,8.33,0,0,0,2.64-.38,4.15,4.15,0,0,0,1.85-1.15,2.78,2.78,0,0,0,.67-1.9,3.58,3.58,0,0,0-1.26-2.55,15.37,15.37,0,0,0-3.24-2.32,38.36,38.36,0,0,0-4.13-2,34.85,34.85,0,0,1-5.52-2.81,13.4,13.4,0,0,1-4.14-4,10.76,10.76,0,0,1-1.57-6,9,9,0,0,1,2.16-6.14,13.37,13.37,0,0,1,5.65-3.77,21.54,21.54,0,0,1,7.44-1.28,29.77,29.77,0,0,1,7.69,1,17.57,17.57,0,0,1,6.33,3,16.77,16.77,0,0,1-.94,2.13c-.47.95-1.05,2-1.72,3.05a22.59,22.59,0,0,1-2.17,3,18.87,18.87,0,0,0-3.75-2.45,10.32,10.32,0,0,0-4.74-1.17,11.47,11.47,0,0,0-2.47.27,4.8,4.8,0,0,0-2,.92,2.19,2.19,0,0,0-.79,1.81,2.68,2.68,0,0,0,.84,1.92,9.33,9.33,0,0,0,2.47,1.67c1.09.53,2.36,1.09,3.82,1.68a46.43,46.43,0,0,1,4.47,2.06,22.7,22.7,0,0,1,4.19,2.84,13.33,13.33,0,0,1,3.09,3.82,10.4,10.4,0,0,1,1.17,5,12.15,12.15,0,0,1-2.25,7.5,13.56,13.56,0,0,1-5.95,4.48A21.57,21.57,0,0,1,392.13,319.69Z"/><path class="cls-1" d="M443,312a12.16,12.16,0,0,1-2.18,2.87,12.75,12.75,0,0,1-3.84,2.6,13.84,13.84,0,0,1-5.72,1.07,12.92,12.92,0,0,1-7.25-1.86,10.93,10.93,0,0,1-4.13-5,17.21,17.21,0,0,1-1.32-6.8c0-1.34,0-2.77.06-4.3s.08-3,.12-4.54.11-2.92.17-4.26.12-2.53.16-3.56.09-1.84.11-2.4c-1.9.19-3.67.41-5.32.66s-2.77.42-3.38.55c-.25-1.34-.44-2.73-.57-4.16s-.23-2.66-.27-3.71-.08-1.69-.08-1.94c1.42-.19,2.93-.37,4.54-.53s3.3-.27,5.08-.35c0-.58-.05-1.5-.09-2.74s-.06-2.36-.09-3.37-.07-1.81-.15-2.72-.13-1.65-.18-2.21l10.83-1c0,.3,0,1,0,2.05s0,2.37,0,3.88c0,.76,0,1.63,0,2.62s.05,1.95.08,2.91l2.81-.15,2.56-.11c1-.05,2-.08,2.78-.09l2.07,0a9.33,9.33,0,0,1,1.12,0c.14,1.14.24,2.61.29,4.39s.07,3.34.07,4.68c-.24,0-1,0-2.37,0l-4,.14c-.9,0-1.9.08-3,.17l-2.59.2q0,.76-.09,2.1c0,.89-.08,1.89-.11,3s-.08,2.26-.11,3.44-.07,2.32-.1,3.42,0,2.07,0,2.93a35.14,35.14,0,0,0,.24,4.33,6.32,6.32,0,0,0,1.06,3,3.36,3.36,0,0,0,4.48.46,5.86,5.86,0,0,0,1.33-1.56l.94-1.59c.31.44.76,1,1.33,1.74s1.18,1.47,1.83,2.25,1.23,1.47,1.76,2.08S442.85,311.79,443,312Z"/><path class="cls-1" d="M454.62,278.5a8.18,8.18,0,0,1-5.55-1.92,6.41,6.41,0,0,1-2.21-5.07,6.35,6.35,0,0,1,1.06-3.7,7.09,7.09,0,0,1,2.76-2.36,8.25,8.25,0,0,1,3.57-.82,6.9,6.9,0,0,1,5.07,2,6.83,6.83,0,0,1,2,5.08,6.68,6.68,0,0,1-1.9,4.85A6.43,6.43,0,0,1,454.62,278.5Zm4.09,38.23c-.41,0-1.2.07-2.36.16s-2.38.13-3.67.13c-.95,0-1.91,0-2.87-.09s-1.91-.14-2.84-.24c.1-.64.23-1.93.38-3.88s.33-4.26.5-6.93.33-5.43.49-8.27.28-5.5.37-8,.13-4.49.13-6l2.16-.11,3.07-.13,3.14-.11c1,0,1.8,0,2.38,0a36.47,36.47,0,0,1,.29,3.67c.08,1.67.11,3.54.11,5.62s0,4.57-.09,7.06-.14,4.89-.25,7.22-.25,4.38-.42,6.15A36.84,36.84,0,0,1,458.71,316.73Z"/><path class="cls-1" d="M487.61,335.05A46.37,46.37,0,0,1,477.22,334a15.14,15.14,0,0,1-7.44-3.8q-2.76-2.73-2.76-7.63a9,9,0,0,1,2-5.61,14.61,14.61,0,0,1,5.69-4.25,24.56,24.56,0,0,1,8.74-1.95c1.52-.1,3.12-.17,4.81-.21s3.69,0,6,0a16.37,16.37,0,0,1,9.53,2.58q3.71,2.58,3.71,8.25a11.82,11.82,0,0,1-2.62,8,14.72,14.72,0,0,1-7.09,4.39A35.25,35.25,0,0,1,487.61,335.05Zm1.65-27.65q-7.5,0-11.85-2.12a13.68,13.68,0,0,1-6.22-5.47,14.23,14.23,0,0,1-1.87-7.05,12.91,12.91,0,0,1,2.47-8,15.11,15.11,0,0,1,6.77-4.92,26.94,26.94,0,0,1,9.79-1.66q8.81,0,13.18,3.87a13.08,13.08,0,0,1,4.38,10.28,15.4,15.4,0,0,1-2.11,8.33A13.18,13.18,0,0,1,498,305.7,20.89,20.89,0,0,1,489.26,307.4Zm-10.39,7.09q-5-1-6.93-2.81a5.33,5.33,0,0,1-2-4,5.62,5.62,0,0,1,.77-3,6.93,6.93,0,0,1,1.85-2,6.34,6.34,0,0,1,2.06-1l7.25,3.66a4.76,4.76,0,0,0-2.07,1.22,2.29,2.29,0,0,0-.68,1.52,2.37,2.37,0,0,0,1.12,1.86,5.1,5.1,0,0,0,3.16.85ZM487.94,328a17,17,0,0,0,4.43-.52,6.71,6.71,0,0,0,3.07-1.61,3.82,3.82,0,0,0,1.14-2.89,3.28,3.28,0,0,0-.9-2.45,5,5,0,0,0-2.29-1.24,11.25,11.25,0,0,0-2.85-.37h-6.77a8.68,8.68,0,0,0-2.5.35,3.69,3.69,0,0,0-1.87,1.25,4.06,4.06,0,0,0-.71,2.57,3.56,3.56,0,0,0,1.21,2.78,7.31,7.31,0,0,0,3.29,1.61A19.51,19.51,0,0,0,487.94,328Zm.33-29.27a9.43,9.43,0,0,0,3.94-.73,5.24,5.24,0,0,0,2.41-2.16,6.84,6.84,0,0,0,.82-3.48,4.87,4.87,0,0,0-.91-2.94,6.28,6.28,0,0,0-2.43-2,7.62,7.62,0,0,0-3.35-.74,11,11,0,0,0-5.36,1.3,4.74,4.74,0,0,0-2.36,4.52,5.48,5.48,0,0,0,2.07,4.63A8.21,8.21,0,0,0,488.27,298.69Zm14.56-11.3L496.39,282a10.25,10.25,0,0,1,1.67-3.05,20.14,20.14,0,0,1,2.82-3,14,14,0,0,1,3.09-2.14c.34.51.83,1.22,1.46,2.12s1.29,1.82,2,2.75,1.26,1.69,1.75,2.3a13.62,13.62,0,0,0-1.81,1.08,15.65,15.65,0,0,0-1.88,1.54,12.06,12.06,0,0,0-1.61,1.84A7.29,7.29,0,0,0,502.83,287.39Z"/><path class="cls-1" d="M529,317.42a26.38,26.38,0,0,1-8.25-1.22,12.49,12.49,0,0,1-5.95-4,11.32,11.32,0,0,1-2.23-7.34,10.41,10.41,0,0,1,2.6-7.37,14.93,14.93,0,0,1,6.8-4.06,31.64,31.64,0,0,1,9.11-1.26,22.8,22.8,0,0,1,3.66.29,25.64,25.64,0,0,1,3.09.7,8.37,8.37,0,0,1,1.92.76,7.45,7.45,0,0,0-.38-2,4.9,4.9,0,0,0-1-1.81,8.73,8.73,0,0,0-3-2.51A12,12,0,0,0,525,288a11.22,11.22,0,0,0-3.62,3.2l-8.93-5.78a15.22,15.22,0,0,1,4.45-4.1,23.64,23.64,0,0,1,6.36-2.74,27.87,27.87,0,0,1,7.49-1,22.53,22.53,0,0,1,10.49,2.12,13.63,13.63,0,0,1,6,5.93,21.2,21.2,0,0,1,1.5,4,27.56,27.56,0,0,1,.8,5.05c.1,1.63.17,3.16.22,4.57s.1,2.76.15,4a8,8,0,0,0,.62,3.62,1.77,1.77,0,0,0,1.57.84,2.88,2.88,0,0,0,1.7-.53,2.34,2.34,0,0,0,1-1.41l3.81,7.28a4.62,4.62,0,0,1-2.27,2.82,9,9,0,0,1-4.72,1.13,11.06,11.06,0,0,1-4-.71,8.77,8.77,0,0,1-3.07-1.94,4.61,4.61,0,0,1-1.41-2.76,6.89,6.89,0,0,1-2.45,2.72,15.56,15.56,0,0,1-4.79,2.18A25,25,0,0,1,529,317.42Zm2.45-8.6a12.35,12.35,0,0,0,3.53-.53A17.13,17.13,0,0,0,538.3,307a9.48,9.48,0,0,0,2.29-1.65q-.12-1.12-.15-2.34c0-.8,0-1.49,0-2.05a16.67,16.67,0,0,0-3.06-.71,27.43,27.43,0,0,0-4.7-.39,17.4,17.4,0,0,0-4.17.48,8.05,8.05,0,0,0-3.16,1.46,3.14,3.14,0,0,0-1.23,2.56A3.75,3.75,0,0,0,525,307a5.09,5.09,0,0,0,2.56,1.41A15.83,15.83,0,0,0,531.48,308.82Z"/><path class="cls-1" d="M586.13,312a12.36,12.36,0,0,1-2.17,2.87,12.68,12.68,0,0,1-3.85,2.6,13.84,13.84,0,0,1-5.72,1.07,12.88,12.88,0,0,1-7.24-1.86,11,11,0,0,1-4.14-5,17.21,17.21,0,0,1-1.32-6.8c0-1.34,0-2.77.06-4.3s.08-3,.13-4.54.1-2.92.16-4.26.12-2.53.17-3.56.08-1.84.11-2.4c-1.91.19-3.68.41-5.33.66s-2.77.42-3.38.55c-.24-1.34-.43-2.73-.57-4.16s-.22-2.66-.27-3.71-.07-1.69-.07-1.94c1.41-.19,2.92-.37,4.53-.53s3.31-.27,5.09-.35c0-.58-.06-1.5-.09-2.74s-.07-2.36-.1-3.37-.07-1.81-.14-2.72-.14-1.65-.19-2.21l10.83-1c0,.3,0,1,0,2.05s0,2.37,0,3.88c0,.76,0,1.63,0,2.62s0,1.95.07,2.91l2.82-.15,2.56-.11c1-.05,2-.08,2.78-.09l2.07,0a9.24,9.24,0,0,1,1.11,0c.15,1.14.24,2.61.29,4.39s.08,3.34.08,4.68c-.25,0-1,0-2.38,0l-4,.14c-.9,0-1.9.08-3,.17l-2.6.2q0,.76-.09,2.1c0,.89-.07,1.89-.11,3s-.07,2.26-.11,3.44-.07,2.32-.09,3.42,0,2.07,0,2.93a35.14,35.14,0,0,0,.24,4.33,6.42,6.42,0,0,0,1.06,3,3.36,3.36,0,0,0,4.48.46,5.9,5.9,0,0,0,1.34-1.56l.93-1.59c.32.44.76,1,1.34,1.74s1.18,1.47,1.82,2.25,1.24,1.47,1.76,2.08S586,311.79,586.13,312Z"/><path class="cls-1" d="M606.4,317.6q-9.69,0-14.6-5.14t-4.9-14.94a21.35,21.35,0,0,1,2.53-10.87,16.08,16.08,0,0,1,7-6.54,23.23,23.23,0,0,1,10.37-2.2,17.19,17.19,0,0,1,10,2.74,16.6,16.6,0,0,1,6,7.58,29.43,29.43,0,0,1,2,11.15,20.72,20.72,0,0,1-2.12,9.63,14.93,14.93,0,0,1-6.2,6.34A20.38,20.38,0,0,1,606.4,317.6Zm-.4-10.5a8.66,8.66,0,0,0,3.56-.69,7.13,7.13,0,0,0,2.64-2,8.85,8.85,0,0,0,1.63-3.05,13,13,0,0,0,.55-3.84,16.49,16.49,0,0,0-.94-5.76,8.57,8.57,0,0,0-2.76-3.92,7.1,7.1,0,0,0-4.46-1.41,7.3,7.3,0,0,0-4.72,1.47,8.46,8.46,0,0,0-2.69,3.82,14.64,14.64,0,0,0-.86,5,12.56,12.56,0,0,0,2.07,7.43A6.85,6.85,0,0,0,606,307.1Z"/><path class="cls-1" d="M640.39,284a10.54,10.54,0,0,1,2.58-3.15,14.34,14.34,0,0,1,4.13-2.45,13.8,13.8,0,0,1,5.1-.95,17.24,17.24,0,0,1,3.33.33,6.42,6.42,0,0,1,2.45.88l-2.27,11.63c-.53-.22-1.23-.45-2.08-.71a10.53,10.53,0,0,0-6.2.16,10.51,10.51,0,0,0-2.95,1.58,11.54,11.54,0,0,0-2.38,2.45c.25,1.44.52,3.25.83,5.43s.59,4.43.86,6.75.49,4.43.66,6.33.25,3.29.25,4.17c-1.7.22-3.68.36-5.92.44s-4.41.11-6.48.11q0-3.07-.16-7c-.11-2.62-.27-5.35-.46-8.19s-.43-5.65-.71-8.42-.6-5.33-1-7.7-.72-4.37-1.11-6c1.17-.34,2.46-.66,3.88-.95s2.69-.53,3.84-.72,1.88-.28,2.19-.31a26,26,0,0,1,1,3A14.6,14.6,0,0,1,640.39,284Z"/><path class="cls-1" d="M676.49,319.69a28,28,0,0,1-7.86-1,29,29,0,0,1-6-2.44,15,15,0,0,1-3.57-2.56,20.15,20.15,0,0,1,.86-2c.43-.9.94-1.88,1.52-2.93s1.17-2,1.76-2.92a11,11,0,0,1,1.57-2q1.75,1.5,3.8,2.94a22.93,22.93,0,0,0,4.21,2.36,10.36,10.36,0,0,0,4,.91,8.31,8.31,0,0,0,2.63-.38,4.15,4.15,0,0,0,1.85-1.15,2.78,2.78,0,0,0,.67-1.9,3.58,3.58,0,0,0-1.26-2.55,15.37,15.37,0,0,0-3.24-2.32,38.36,38.36,0,0,0-4.13-2,34.85,34.85,0,0,1-5.52-2.81,13.4,13.4,0,0,1-4.14-4,10.76,10.76,0,0,1-1.57-6,9,9,0,0,1,2.16-6.14,13.37,13.37,0,0,1,5.65-3.77,21.54,21.54,0,0,1,7.44-1.28,29.77,29.77,0,0,1,7.69,1,17.57,17.57,0,0,1,6.33,3,16.77,16.77,0,0,1-.94,2.13c-.47.95-1,2-1.72,3.05a22.59,22.59,0,0,1-2.17,3,18.87,18.87,0,0,0-3.75-2.45,10.32,10.32,0,0,0-4.74-1.17,11.47,11.47,0,0,0-2.47.27,4.8,4.8,0,0,0-2,.92,2.19,2.19,0,0,0-.79,1.81,2.68,2.68,0,0,0,.84,1.92,9.33,9.33,0,0,0,2.47,1.67c1.09.53,2.36,1.09,3.82,1.68a46.43,46.43,0,0,1,4.47,2.06,22.7,22.7,0,0,1,4.19,2.84,13.33,13.33,0,0,1,3.09,3.82,10.4,10.4,0,0,1,1.17,5,12.15,12.15,0,0,1-2.25,7.5,13.56,13.56,0,0,1-5.95,4.48A21.57,21.57,0,0,1,676.49,319.69Z"/><path class="cls-2" d="M129.39,324.68,62.75,256.26a12.33,12.33,0,0,1,7.34-20.84l48.51-5.91a12.34,12.34,0,0,0,9.59-17.66L111,176.6a12.34,12.34,0,0,1,12-17.72l74.49,5.5A12.33,12.33,0,0,1,207,183.26l-44.7,70.87a12.35,12.35,0,0,0-1.73,4.5l-10.16,59.52A12.33,12.33,0,0,1,129.39,324.68Z"/><path class="cls-3" d="M101.12,201.11l-36.32-86C62.22,109,54.89,104.54,46.58,104l-18.09-1.14C14,102-5.11,119.43,1.26,129.63l54.4,87.12c3.85,6.17,22,3.42,30.6,2.64h0C97.79,218.35,104.77,209.76,101.12,201.11Z"/><path class="cls-4" d="M192.69,80.52l1.44,60.72a15.39,15.39,0,0,0,13.1,14.86l76,11.39a15.39,15.39,0,0,0,15.26-7L335.15,103a15.38,15.38,0,0,0-7.47-22.64L307,72.42a15.4,15.4,0,0,0-19.59,8.15l-14.89,25.29A15.42,15.42,0,0,1,257.38,115L245,114.11c-8.25-.58-15.87-7.78-15.61-16l-5.88-17.43A15.4,15.4,0,0,0,205.68,65h0A15.39,15.39,0,0,0,192.69,80.52Z"/><path class="cls-5" d="M252.53,1.22,170.09,6a13.5,13.5,0,0,1-2.91-.14L130.79.17a13.85,13.85,0,0,0-15.67,16.58l2.09,9.75a13.83,13.83,0,0,0,14.88,10.89l87.4-8.49A13.84,13.84,0,0,1,232,34.46l5.33,7.23a17.44,17.44,0,0,1,2.31,16.48h0A13.84,13.84,0,0,0,255.75,76.5h0a13.84,13.84,0,0,0,10.67-13.26l.75-48A13.85,13.85,0,0,0,252.53,1.22Z"/><path class="cls-6" d="M67.92,83l-.64,5.53A26.16,26.16,0,0,0,91.66,117.7h0a26.13,26.13,0,0,1,15.91,6.68l14.11,12.71a26.07,26.07,0,0,0,9.23,5.38l4.07,1.36a26.17,26.17,0,0,0,34.34-22.46l4.15-45.92a26.16,26.16,0,0,0-32.21-27.78l-53.51,13A26.14,26.14,0,0,0,67.92,83Z"/></g></g></svg>