<?xml version="1.0" encoding="utf-8"?>
<!-- Generator: Adobe Illustrator 24.2.3, SVG Export Plug-In . SVG Version: 6.00 Build 0)  -->
<svg version="1.1" id="Layer_1" xmlns="http://www.w3.org/2000/svg" xmlns:xlink="http://www.w3.org/1999/xlink" x="0px" y="0px"
	 viewBox="0 0 841.89 595.28" style="enable-background:new 0 0 841.89 595.28;" xml:space="preserve">
<style type="text/css">
	.st0{fill:#595A5C;}
	.st1{fill:#ED2224;}
	.st2{fill:#43ADE2;}
	.st3{fill:#22B466;}
	.st4{fill:#FEE600;}
	.st5{fill:#F390BB;}
</style>
<g>
	<g>
		<path class="st0" d="M309.91,341.83c-0.12-1.56-0.24-3.58-0.37-6.05s-0.22-5.16-0.29-8.05c-0.07-2.89-0.14-5.76-0.2-8.62
			c-0.06-2.85-0.11-5.49-0.15-7.92s-0.05-4.37-0.05-5.83c0.59-0.17,1.37-0.33,2.36-0.49c0.99-0.16,2.03-0.3,3.13-0.44
			c1.1-0.13,2.14-0.24,3.13-0.33c0.99-0.08,1.79-0.13,2.4-0.13c0.02,0.42,0.05,0.92,0.07,1.5c0.02,0.58,0.04,1.2,0.06,1.83
			c0.01,0.63,0.02,1.21,0.02,1.72c0,0.51,0,0.9,0,1.17c0.15-0.46,0.49-1.06,1.02-1.79c0.54-0.73,1.27-1.46,2.21-2.2
			c0.94-0.73,2.08-1.35,3.42-1.85c1.34-0.5,2.89-0.75,4.65-0.75c1.68,0,3.11,0.32,4.28,0.95c1.17,0.63,2.15,1.46,2.93,2.49
			c0.78,1.02,1.39,2.13,1.83,3.33c0.22,0.58,0.4,1.18,0.53,1.79c0.13,0.61,0.24,1.21,0.31,1.79c0.54-1.78,1.43-3.48,2.69-5.1
			c1.26-1.62,2.82-2.95,4.7-3.99c1.88-1.04,4.04-1.55,6.48-1.55c2.93,0,5.33,0.52,7.23,1.57c1.89,1.05,3.36,2.6,4.41,4.65
			c1.05,2.05,1.78,4.56,2.19,7.54c0.41,2.98,0.62,6.38,0.62,10.21c0,1.51-0.03,3.1-0.09,4.76c-0.06,1.66-0.14,3.33-0.24,5.01
			c-0.1,1.68-0.2,3.32-0.29,4.9c-0.88,0.05-1.79,0.09-2.74,0.13c-0.95,0.04-1.9,0.05-2.85,0.05c-0.98,0-1.95-0.02-2.93-0.05
			c-0.98-0.04-1.96-0.09-2.96-0.16c0.49-3.63,0.89-6.98,1.21-10.04c0.32-3.06,0.48-5.75,0.48-8.07c0-3.37-0.38-5.94-1.15-7.74
			c-0.77-1.79-2.08-2.69-3.93-2.69c-1.68,0-3.05,0.51-4.1,1.54c-1.05,1.02-1.87,2.44-2.45,4.24s-1.01,3.9-1.26,6.27
			c-0.26,2.38-0.43,4.92-0.53,7.63c-0.05,1.37-0.1,2.79-0.15,4.28c-0.05,1.49-0.07,3-0.07,4.54c-0.49,0.02-1.18,0.05-2.07,0.09
			c-0.89,0.04-1.82,0.05-2.8,0.05c-1.15,0-2.26-0.02-3.33-0.05c-1.07-0.04-1.85-0.09-2.34-0.17c-0.02-1.66-0.04-3.21-0.04-4.66
			s0-2.96,0-4.52c0-2.78-0.06-5.35-0.18-7.7c-0.12-2.35-0.39-4.4-0.8-6.15c-0.42-1.74-1.03-3.1-1.85-4.08
			c-0.82-0.97-1.92-1.46-3.31-1.46c-0.95,0-1.88,0.21-2.78,0.62c-0.9,0.42-1.73,0.95-2.47,1.61c-0.74,0.66-1.37,1.38-1.87,2.18
			c-0.5,0.79-0.85,1.58-1.04,2.36c0.15,3.88,0.3,7.41,0.48,10.61c0.17,3.2,0.33,5.8,0.48,7.83s0.24,3.23,0.29,3.62
			c-0.27,0.02-0.83,0.05-1.68,0.07c-0.85,0.02-1.6,0.04-2.23,0.04c-1.54,0-3.07-0.04-4.61-0.11
			C311.74,341.98,310.62,341.91,309.91,341.83z"/>
		<path class="st0" d="M384.58,303.24c-2.22,0-4.07-0.64-5.54-1.92c-1.48-1.28-2.21-2.97-2.21-5.07c0-1.44,0.35-2.67,1.06-3.69
			c0.71-1.02,1.63-1.81,2.76-2.36c1.13-0.55,2.32-0.82,3.57-0.82c2.05,0,3.74,0.66,5.07,1.98c1.33,1.32,1.99,3.01,1.99,5.08
			c0,1.93-0.63,3.54-1.9,4.85S386.5,303.24,384.58,303.24z M388.68,341.47c-0.42,0.02-1.2,0.08-2.36,0.17
			c-1.16,0.08-2.38,0.13-3.68,0.13c-0.95,0-1.91-0.03-2.87-0.09c-0.96-0.06-1.91-0.14-2.83-0.24c0.1-0.63,0.23-1.93,0.38-3.88
			s0.32-4.26,0.49-6.93c0.17-2.67,0.33-5.43,0.49-8.27c0.16-2.84,0.28-5.51,0.37-7.99s0.13-4.49,0.13-6
			c0.49-0.02,1.21-0.06,2.16-0.11s1.98-0.09,3.07-0.13c1.1-0.04,2.15-0.07,3.15-0.11c1-0.04,1.79-0.06,2.38-0.06
			c0.12,0.78,0.22,2.01,0.29,3.68c0.07,1.67,0.11,3.54,0.11,5.62c0,2.22-0.03,4.57-0.09,7.06c-0.06,2.49-0.15,4.9-0.26,7.22
			c-0.11,2.33-0.25,4.38-0.42,6.15C389.02,339.45,388.85,340.71,388.68,341.47z"/>
		<path class="st0" d="M431,333.79c-0.73,1.27-1.84,2.53-3.33,3.79c-1.49,1.26-3.33,2.29-5.52,3.11c-2.19,0.82-4.72,1.23-7.57,1.23
			c-3.71,0-6.91-0.92-9.62-2.74c-2.71-1.83-4.8-4.28-6.27-7.35s-2.21-6.44-2.21-10.1c0-3.85,0.76-7.3,2.29-10.35
			c1.52-3.05,3.67-5.46,6.44-7.24s6.05-2.67,9.86-2.67c2.29,0,4.39,0.35,6.29,1.06s3.58,1.71,5.03,3c1.45,1.29,2.65,2.81,3.6,4.54
			l-7.97,4.5c-0.1-0.22-0.27-0.54-0.51-0.95c-0.24-0.41-0.62-0.85-1.12-1.32c-0.5-0.46-1.14-0.85-1.92-1.17
			c-0.78-0.32-1.76-0.48-2.93-0.48c-1.76,0-3.24,0.38-4.46,1.13c-1.22,0.76-2.14,1.83-2.76,3.22c-0.62,1.39-0.93,3.02-0.93,4.9
			c0,1.56,0.23,3.13,0.7,4.7c0.46,1.57,1.24,2.88,2.34,3.93s2.6,1.57,4.5,1.57c1.17,0,2.24-0.2,3.22-0.59
			c0.98-0.39,1.82-0.86,2.52-1.41c0.71-0.55,1.28-1.07,1.72-1.55c0.44-0.49,0.72-0.82,0.84-0.99L431,333.79z"/>
		<path class="st0" d="M445.96,308.76c0.56-1.1,1.42-2.15,2.58-3.15s2.54-1.82,4.13-2.45c1.6-0.63,3.3-0.95,5.1-0.95
			c1.1,0,2.21,0.11,3.33,0.33c1.12,0.22,1.94,0.51,2.45,0.88l-2.27,11.63c-0.54-0.22-1.23-0.46-2.09-0.71
			c-0.85-0.26-1.83-0.38-2.93-0.38c-1.12,0-2.21,0.18-3.28,0.55s-2.04,0.89-2.95,1.57s-1.7,1.5-2.38,2.45
			c0.24,1.44,0.52,3.25,0.82,5.43s0.59,4.43,0.86,6.75c0.27,2.32,0.49,4.43,0.66,6.33c0.17,1.9,0.26,3.29,0.26,4.17
			c-1.71,0.22-3.68,0.37-5.93,0.44c-2.24,0.07-4.4,0.11-6.48,0.11c0-2.05-0.05-4.38-0.17-7.01c-0.11-2.62-0.26-5.35-0.46-8.2
			c-0.2-2.84-0.43-5.65-0.71-8.41c-0.28-2.77-0.6-5.33-0.95-7.7c-0.35-2.37-0.73-4.38-1.12-6.04c1.17-0.34,2.46-0.66,3.88-0.95
			c1.41-0.29,2.69-0.53,3.84-0.71s1.88-0.29,2.2-0.31c0.29,0.68,0.62,1.69,0.99,3.02C445.74,306.78,445.94,307.88,445.96,308.76z"/>
		<path class="st0" d="M485.99,342.35c-6.46,0-11.33-1.71-14.6-5.14c-3.27-3.43-4.9-8.41-4.9-14.94c0-4.34,0.84-7.96,2.52-10.87
			s4.02-5.08,7.01-6.55c2.99-1.46,6.44-2.19,10.37-2.19c4,0,7.32,0.91,9.97,2.74c2.65,1.83,4.63,4.35,5.94,7.57
			c1.32,3.22,1.98,6.94,1.98,11.16c0,3.68-0.71,6.89-2.12,9.62c-1.42,2.73-3.48,4.85-6.2,6.35
			C493.23,341.6,489.91,342.35,485.99,342.35z M485.58,331.85c1.34,0,2.53-0.23,3.57-0.7c1.04-0.46,1.91-1.13,2.63-1.99
			c0.72-0.87,1.26-1.88,1.63-3.05c0.37-1.17,0.55-2.45,0.55-3.84c0-2.17-0.31-4.09-0.93-5.76s-1.54-2.98-2.76-3.92
			c-1.22-0.94-2.71-1.41-4.46-1.41c-1.93,0-3.5,0.49-4.72,1.46c-1.22,0.98-2.12,2.25-2.69,3.82c-0.57,1.57-0.86,3.25-0.86,5.03
			c0,3,0.69,5.48,2.07,7.43C480.98,330.87,482.97,331.85,485.58,331.85z"/>
		<path class="st0" d="M316.61,377.26c-2.22,0-4.07-0.64-5.54-1.92c-1.48-1.28-2.21-2.97-2.21-5.07c0-1.44,0.35-2.67,1.06-3.7
			c0.71-1.02,1.63-1.81,2.76-2.36c1.13-0.55,2.32-0.82,3.57-0.82c2.05,0,3.74,0.66,5.07,1.98c1.33,1.32,1.99,3.01,1.99,5.08
			c0,1.93-0.63,3.54-1.9,4.85S318.53,377.26,316.61,377.26z M320.71,415.49c-0.42,0.02-1.2,0.08-2.36,0.17
			c-1.16,0.08-2.38,0.13-3.68,0.13c-0.95,0-1.91-0.03-2.87-0.09c-0.96-0.06-1.91-0.14-2.83-0.24c0.1-0.63,0.23-1.93,0.38-3.88
			s0.32-4.26,0.49-6.93c0.17-2.67,0.33-5.43,0.49-8.27c0.16-2.84,0.28-5.51,0.37-7.99c0.09-2.49,0.13-4.49,0.13-6
			c0.49-0.02,1.21-0.06,2.16-0.11c0.95-0.05,1.98-0.09,3.07-0.13c1.1-0.04,2.15-0.07,3.15-0.11c1-0.04,1.79-0.05,2.38-0.05
			c0.12,0.78,0.22,2.01,0.29,3.68c0.07,1.67,0.11,3.54,0.11,5.62c0,2.22-0.03,4.57-0.09,7.06c-0.06,2.49-0.15,4.9-0.26,7.22
			c-0.11,2.33-0.25,4.38-0.42,6.15C321.05,413.47,320.88,414.73,320.71,415.49z"/>
		<path class="st0" d="M342.22,416.07c-0.73,0-1.63-0.01-2.71-0.02c-1.07-0.01-2.17-0.03-3.29-0.05c-0.9-0.03-1.95-0.06-3.13-0.11
			c-1.18-0.05-1.99-0.1-2.43-0.15c0.22-2.05,0.41-4.37,0.57-6.95s0.28-5.45,0.37-8.6c0.09-3.15,0.15-6.58,0.2-10.32
			c0.05-3.73,0.07-7.77,0.07-12.11c0.93-0.12,2.03-0.22,3.31-0.29s2.57-0.11,3.86-0.11c0.9,0,1.77,0.02,2.62,0.07
			c0.84,0.05,1.59,0.12,2.25,0.22c0,0.22,0.01,0.67,0.02,1.34s0.01,1.4,0,2.19c-0.01,0.79-0.03,1.51-0.05,2.14
			c0.63-0.93,1.67-1.9,3.11-2.91s3.11-1.87,5.01-2.58c1.9-0.71,3.87-1.06,5.89-1.06c3.73,0,6.58,0.75,8.56,2.25s3.33,3.74,4.06,6.73
			c0.73,2.99,1.1,6.73,1.1,11.21c0,1.56-0.04,3.38-0.13,5.47c-0.09,2.08-0.21,4.27-0.38,6.57c-0.17,2.29-0.39,4.51-0.66,6.66
			c-0.49,0.05-1.26,0.09-2.32,0.13c-1.06,0.04-2.18,0.06-3.35,0.06c-1.24,0-2.43-0.02-3.55-0.06c-1.12-0.04-1.95-0.08-2.49-0.13
			c0.27-1.37,0.55-3.07,0.86-5.12c0.3-2.05,0.57-4.23,0.8-6.55c0.23-2.32,0.35-4.55,0.35-6.69c0-2.05-0.16-3.83-0.49-5.34
			c-0.33-1.51-0.95-2.69-1.87-3.53c-0.91-0.84-2.26-1.26-4.04-1.26c-1.46,0-2.87,0.26-4.21,0.77c-1.34,0.51-2.56,1.14-3.66,1.88
			c-1.1,0.74-2.04,1.47-2.82,2.18c-0.02,3.85-0.12,7.33-0.29,10.44c-0.17,3.11-0.35,5.81-0.55,8.1
			C342.61,412.84,342.41,414.68,342.22,416.07z"/>
		<path class="st0" d="M401,375.65c1.73,0.29,3.35,0.63,4.87,1.02c1.51,0.39,2.77,0.73,3.79,1.02c1.01,0.29,1.63,0.49,1.85,0.58
			c-0.49,1.95-1.07,4.13-1.74,6.53c-0.67,2.4-1.42,4.92-2.23,7.54c-0.82,2.62-1.68,5.26-2.58,7.9c-0.9,2.65-1.82,5.22-2.76,7.72
			c-0.94,2.5-1.86,4.8-2.76,6.9c-1.29,0.22-2.88,0.33-4.76,0.33c-0.93,0-1.82-0.04-2.69-0.11c-0.87-0.07-1.6-0.15-2.21-0.22
			c-1.27-2.66-2.5-5.46-3.69-8.4c-1.2-2.94-2.36-5.97-3.49-9.09c-1.13-3.12-2.23-6.3-3.27-9.55c-1.05-3.24-2.06-6.51-3.04-9.8
			c0.37-0.07,0.97-0.2,1.81-0.38c0.84-0.18,1.77-0.4,2.78-0.64c1.01-0.24,2.01-0.49,2.98-0.75c0.98-0.26,1.78-0.47,2.41-0.64
			c0.37,1.46,0.84,3.19,1.43,5.18c0.59,1.99,1.23,4.06,1.92,6.22c0.69,2.16,1.38,4.24,2.07,6.25c0.68,2.01,1.3,3.8,1.85,5.36
			c0.55,1.56,0.97,2.72,1.26,3.48l-0.44,0.18c0.44-1.39,0.88-2.85,1.34-4.37c0.45-1.52,0.91-3.13,1.39-4.83
			c0.48-1.69,0.94-3.47,1.39-5.32c0.45-1.85,0.89-3.79,1.32-5.82C400.2,379.92,400.61,377.82,401,375.65z"/>
		<path class="st0" d="M451.16,409.01c-0.68,0.83-1.54,1.65-2.58,2.45c-1.04,0.8-2.26,1.53-3.68,2.18
			c-1.42,0.65-3.04,1.16-4.88,1.54c-1.84,0.38-3.88,0.57-6.13,0.57c-3.68,0-6.95-0.7-9.8-2.1c-2.85-1.4-5.08-3.49-6.69-6.26
			c-1.61-2.77-2.41-6.21-2.41-10.33c0-4.12,0.84-7.71,2.51-10.77c1.67-3.06,3.99-5.44,6.97-7.13c2.98-1.69,6.45-2.54,10.43-2.54
			c5.02,0,8.98,1.4,11.87,4.19c2.89,2.79,4.39,6.67,4.52,11.62c0.02,0.88,0.01,1.68-0.04,2.42c-0.05,0.73-0.15,1.52-0.29,2.38
			c-0.37-0.02-1.15-0.05-2.34-0.09c-1.2-0.04-2.54-0.07-4.04-0.09c-1.5-0.02-2.92-0.05-4.24-0.09c-1.33-0.04-2.31-0.06-2.94-0.06
			c-2.12,0-4.18,0.1-6.17,0.29c-1.99,0.2-3.65,0.4-4.99,0.62c0,0.44,0.03,0.87,0.09,1.3c0.06,0.43,0.15,0.83,0.27,1.23
			c0.32,1,0.87,1.85,1.66,2.56c0.79,0.71,1.74,1.25,2.85,1.63c1.11,0.38,2.29,0.57,3.53,0.57c1.12,0,2.15-0.14,3.09-0.42
			c0.94-0.28,1.8-0.65,2.58-1.12c0.78-0.46,1.49-0.97,2.14-1.52c0.65-0.55,1.25-1.09,1.81-1.63c0.15,0.12,0.52,0.48,1.12,1.08
			s1.28,1.33,2.05,2.21s1.49,1.79,2.18,2.73C450.27,407.34,450.79,408.21,451.16,409.01z M426.61,390.94
			c1.1-0.17,2.45-0.33,4.06-0.48c1.61-0.15,3.48-0.22,5.6-0.22c1.15,0,2.16,0.01,3.05,0.04c0.89,0.03,1.52,0.05,1.88,0.07
			c0-0.51-0.07-1.07-0.22-1.68c-0.22-0.83-0.61-1.62-1.17-2.36c-0.56-0.74-1.29-1.35-2.2-1.83s-1.96-0.71-3.18-0.71
			c-1.56,0-2.92,0.34-4.08,1.02c-1.16,0.68-2.05,1.57-2.69,2.67C427.04,388.56,426.68,389.72,426.61,390.94z"/>
		<path class="st0" d="M471.64,418.45c-2.88,0-5.5-0.35-7.87-1.04s-4.37-1.51-6.02-2.43c-1.65-0.93-2.83-1.78-3.57-2.56
			c0.15-0.44,0.43-1.11,0.86-2.01c0.43-0.9,0.93-1.88,1.52-2.93c0.59-1.05,1.17-2.02,1.76-2.93c0.59-0.9,1.11-1.57,1.57-2.01
			c1.17,1,2.44,1.98,3.8,2.94c1.37,0.96,2.77,1.75,4.21,2.36s2.78,0.91,4.02,0.91c0.98,0,1.85-0.13,2.63-0.38s1.4-0.64,1.85-1.15
			c0.45-0.51,0.68-1.15,0.68-1.9c0-0.88-0.42-1.73-1.26-2.54c-0.84-0.82-1.92-1.59-3.24-2.32c-1.32-0.73-2.69-1.39-4.13-1.98
			c-1.98-0.81-3.82-1.74-5.52-2.82c-1.71-1.07-3.09-2.41-4.13-4.02c-1.05-1.61-1.57-3.61-1.57-6c0-2.44,0.72-4.49,2.16-6.15
			c1.44-1.66,3.32-2.91,5.65-3.77c2.33-0.85,4.81-1.28,7.44-1.28c2.54,0,5.1,0.35,7.68,1.04c2.58,0.7,4.69,1.69,6.33,2.98
			c-0.15,0.46-0.46,1.17-0.93,2.12s-1.05,1.97-1.72,3.05c-0.67,1.09-1.4,2.08-2.18,2.98c-0.98-0.85-2.23-1.67-3.75-2.45
			c-1.52-0.78-3.1-1.17-4.74-1.17c-0.83,0-1.65,0.09-2.47,0.27c-0.82,0.18-1.49,0.49-2.01,0.91c-0.53,0.43-0.79,1.03-0.79,1.81
			c0,0.71,0.28,1.35,0.84,1.92c0.56,0.57,1.38,1.13,2.47,1.67c1.08,0.54,2.36,1.1,3.82,1.68c1.46,0.58,2.95,1.27,4.46,2.07
			c1.51,0.79,2.91,1.74,4.19,2.84c1.28,1.1,2.31,2.37,3.09,3.82c0.78,1.45,1.17,3.12,1.17,4.99c0,3-0.75,5.5-2.25,7.5
			c-1.5,2-3.48,3.49-5.94,4.48C477.3,417.96,474.6,418.45,471.64,418.45z"/>
		<path class="st0" d="M523.26,410.77c-0.46,0.9-1.19,1.86-2.18,2.87c-0.99,1.01-2.27,1.88-3.84,2.6s-3.48,1.08-5.73,1.08
			c-2.95,0-5.37-0.62-7.24-1.87c-1.88-1.24-3.26-2.9-4.13-4.98s-1.32-4.34-1.32-6.8c0-1.34,0.02-2.77,0.06-4.3
			c0.04-1.52,0.08-3.04,0.13-4.54c0.05-1.5,0.1-2.92,0.16-4.26c0.06-1.34,0.12-2.53,0.17-3.57c0.05-1.04,0.08-1.83,0.11-2.4
			c-1.9,0.2-3.68,0.42-5.32,0.66c-1.65,0.24-2.78,0.43-3.38,0.55c-0.24-1.34-0.43-2.73-0.57-4.15c-0.13-1.43-0.23-2.66-0.27-3.71
			s-0.07-1.7-0.07-1.94c1.41-0.19,2.93-0.37,4.54-0.53c1.61-0.16,3.3-0.27,5.08-0.35c-0.02-0.58-0.05-1.5-0.09-2.74
			c-0.04-1.24-0.07-2.37-0.09-3.37c-0.02-0.9-0.07-1.81-0.15-2.72c-0.07-0.92-0.13-1.65-0.18-2.21l10.83-0.95
			c0,0.29,0.01,0.98,0.02,2.05c0.01,1.07,0.02,2.37,0.02,3.88c0,0.76,0.01,1.63,0.04,2.62c0.02,0.99,0.05,1.96,0.07,2.91
			c0.8-0.05,1.74-0.1,2.82-0.15c1.07-0.05,1.93-0.09,2.56-0.11c1.02-0.05,1.95-0.08,2.78-0.09c0.83-0.01,1.52-0.02,2.07-0.02
			c0.55,0,0.92,0.01,1.12,0.04c0.15,1.15,0.24,2.61,0.29,4.39c0.05,1.78,0.07,3.34,0.07,4.68c-0.24-0.02-1.04-0.01-2.38,0.04
			c-1.34,0.05-2.66,0.1-3.95,0.15c-0.9,0.02-1.9,0.08-3,0.17c-1.1,0.08-1.96,0.15-2.6,0.2c-0.02,0.51-0.05,1.21-0.09,2.1
			c-0.04,0.89-0.07,1.89-0.11,3c-0.04,1.11-0.07,2.26-0.11,3.44s-0.07,2.32-0.09,3.42c-0.02,1.1-0.04,2.07-0.04,2.93
			c0,1.61,0.08,3.05,0.24,4.33c0.16,1.28,0.51,2.29,1.06,3.04s1.4,1.12,2.54,1.12c0.76,0,1.4-0.22,1.94-0.66
			c0.54-0.44,0.98-0.96,1.33-1.55s0.66-1.13,0.93-1.59c0.32,0.44,0.76,1.02,1.34,1.74c0.57,0.72,1.18,1.47,1.83,2.25
			c0.65,0.78,1.23,1.48,1.76,2.08S523.09,410.55,523.26,410.77z"/>
		<path class="st0" d="M536.69,377.26c-2.22,0-4.07-0.64-5.54-1.92c-1.48-1.28-2.21-2.97-2.21-5.07c0-1.44,0.35-2.67,1.06-3.7
			c0.71-1.02,1.63-1.81,2.76-2.36s2.32-0.82,3.57-0.82c2.05,0,3.74,0.66,5.07,1.98c1.33,1.32,1.99,3.01,1.99,5.08
			c0,1.93-0.63,3.54-1.9,4.85C540.21,376.61,538.62,377.26,536.69,377.26z M540.79,415.49c-0.42,0.02-1.2,0.08-2.36,0.17
			c-1.16,0.08-2.38,0.13-3.68,0.13c-0.95,0-1.91-0.03-2.87-0.09c-0.96-0.06-1.91-0.14-2.83-0.24c0.1-0.63,0.22-1.93,0.38-3.88
			c0.16-1.95,0.32-4.26,0.49-6.93c0.17-2.67,0.33-5.43,0.49-8.27c0.16-2.84,0.28-5.51,0.37-7.99c0.08-2.49,0.13-4.49,0.13-6
			c0.49-0.02,1.21-0.06,2.16-0.11c0.95-0.05,1.97-0.09,3.07-0.13c1.1-0.04,2.15-0.07,3.15-0.11c1-0.04,1.79-0.05,2.38-0.05
			c0.12,0.78,0.22,2.01,0.29,3.68c0.07,1.67,0.11,3.54,0.11,5.62c0,2.22-0.03,4.57-0.09,7.06c-0.06,2.49-0.15,4.9-0.26,7.22
			c-0.11,2.33-0.25,4.38-0.42,6.15S540.96,414.73,540.79,415.49z"/>
		<path class="st0" d="M569.69,433.82c-3.8,0-7.27-0.36-10.39-1.08c-3.12-0.72-5.6-1.99-7.44-3.8c-1.84-1.82-2.76-4.36-2.76-7.63
			c0-2.02,0.66-3.9,1.99-5.62c1.33-1.72,3.22-3.13,5.69-4.24c2.46-1.11,5.38-1.76,8.74-1.96c1.51-0.1,3.12-0.16,4.81-0.2
			c1.7-0.04,3.69-0.05,5.98-0.05c3.88,0,7.05,0.86,9.53,2.58c2.47,1.72,3.71,4.47,3.71,8.25c0,3.32-0.87,5.99-2.62,8.01
			c-1.74,2.02-4.11,3.49-7.1,4.39S573.47,433.82,569.69,433.82z M571.33,406.16c-5,0-8.95-0.71-11.85-2.12s-4.98-3.24-6.22-5.47
			c-1.24-2.23-1.87-4.58-1.87-7.04c0-3.17,0.82-5.84,2.47-8.01c1.65-2.17,3.9-3.81,6.77-4.92c2.87-1.11,6.13-1.66,9.79-1.66
			c5.88,0,10.27,1.29,13.19,3.88c2.91,2.58,4.37,6.01,4.37,10.28c0,3.32-0.7,6.09-2.1,8.32s-3.35,3.91-5.83,5.05
			C577.55,405.59,574.65,406.16,571.33,406.16z M560.94,413.26c-3.32-0.68-5.63-1.62-6.93-2.82c-1.31-1.19-1.96-2.52-1.96-3.99
			c0-1.15,0.26-2.14,0.77-2.98c0.51-0.84,1.13-1.52,1.85-2.05c0.72-0.52,1.41-0.87,2.07-1.04l7.24,3.66
			c-0.93,0.32-1.62,0.73-2.07,1.23s-0.68,1.01-0.68,1.52c0,0.68,0.37,1.31,1.12,1.87c0.74,0.56,1.8,0.84,3.16,0.84L560.94,413.26z
			 M570.02,426.72c1.66,0,3.13-0.17,4.43-0.51c1.29-0.34,2.32-0.88,3.07-1.61c0.75-0.73,1.13-1.7,1.13-2.89
			c0-1.05-0.3-1.87-0.9-2.45c-0.6-0.59-1.36-1-2.29-1.24c-0.93-0.24-1.88-0.37-2.85-0.37c-0.63,0-1.38,0-2.23,0
			c-0.85,0-1.69,0-2.51,0c-0.82,0-1.5,0-2.03,0c-0.9,0-1.74,0.12-2.51,0.35c-0.77,0.23-1.39,0.65-1.87,1.24s-0.71,1.46-0.71,2.58
			c0,1.12,0.4,2.05,1.21,2.78c0.8,0.73,1.9,1.27,3.29,1.61C566.65,426.55,568.24,426.72,570.02,426.72z M570.35,397.45
			c1.56,0,2.87-0.24,3.93-0.73c1.06-0.49,1.87-1.21,2.42-2.16s0.82-2.11,0.82-3.48c0-1.12-0.31-2.1-0.92-2.94
			c-0.61-0.84-1.42-1.51-2.43-1.99c-1.01-0.49-2.13-0.73-3.35-0.73c-2,0-3.79,0.43-5.36,1.3c-1.57,0.87-2.36,2.37-2.36,4.52
			c0,2.03,0.69,3.57,2.07,4.63C566.55,396.92,568.27,397.45,570.35,397.45z M584.91,386.15l-6.44-5.41
			c0.29-0.95,0.85-1.97,1.66-3.05c0.82-1.08,1.76-2.1,2.82-3.04c1.06-0.94,2.09-1.65,3.09-2.14c0.34,0.51,0.83,1.22,1.46,2.12
			c0.63,0.9,1.29,1.82,1.98,2.74s1.27,1.7,1.76,2.3c-0.56,0.27-1.16,0.63-1.81,1.08s-1.27,0.96-1.88,1.54
			c-0.61,0.57-1.15,1.19-1.61,1.85C585.47,384.79,585.12,385.47,584.91,386.15z"/>
		<path class="st0" d="M611.1,416.18c-3.02,0-5.77-0.41-8.25-1.23c-2.48-0.82-4.46-2.15-5.95-3.99s-2.23-4.29-2.23-7.33
			s0.87-5.51,2.6-7.37c1.73-1.87,4-3.22,6.8-4.06c2.8-0.84,5.84-1.26,9.11-1.26c1.27,0,2.49,0.1,3.66,0.29
			c1.17,0.2,2.2,0.43,3.09,0.7c0.89,0.27,1.53,0.52,1.92,0.77c-0.02-0.61-0.15-1.27-0.38-1.99c-0.23-0.72-0.57-1.32-1.01-1.81
			c-0.73-1-1.72-1.83-2.96-2.51s-2.9-1.01-4.98-1.01c-2.05,0-3.87,0.47-5.45,1.41c-1.58,0.94-2.79,2.01-3.62,3.2l-8.93-5.78
			c1.1-1.56,2.58-2.93,4.45-4.1c1.87-1.17,3.99-2.08,6.37-2.74c2.38-0.66,4.87-0.99,7.48-0.99c4.32,0,7.82,0.71,10.5,2.12
			c2.68,1.42,4.67,3.39,5.96,5.93c0.61,1.22,1.11,2.56,1.5,4.02c0.39,1.46,0.66,3.15,0.8,5.05c0.1,1.63,0.17,3.16,0.22,4.57
			c0.05,1.41,0.1,2.76,0.15,4.02c0.05,1.85,0.26,3.06,0.62,3.62c0.37,0.56,0.89,0.84,1.57,0.84c0.63,0,1.2-0.18,1.7-0.53
			c0.5-0.35,0.82-0.82,0.97-1.41l3.8,7.28c-0.27,1.12-1.02,2.06-2.27,2.82c-1.24,0.76-2.82,1.13-4.72,1.13
			c-1.41,0-2.74-0.24-3.97-0.71c-1.23-0.48-2.26-1.12-3.07-1.94c-0.82-0.82-1.29-1.74-1.41-2.76c-0.39,0.93-1.21,1.84-2.45,2.73
			c-1.24,0.89-2.84,1.62-4.79,2.18S613.71,416.18,611.1,416.18z M613.55,407.59c1.15,0,2.32-0.18,3.53-0.53
			c1.21-0.35,2.3-0.8,3.29-1.33c0.99-0.54,1.75-1.08,2.29-1.65c-0.07-0.76-0.12-1.54-0.15-2.34s-0.02-1.49,0-2.05
			c-0.54-0.22-1.55-0.46-3.05-0.71c-1.5-0.26-3.07-0.38-4.7-0.38c-1.49,0-2.88,0.16-4.17,0.48c-1.29,0.32-2.35,0.8-3.17,1.46
			c-0.82,0.66-1.23,1.51-1.23,2.56c0,1.12,0.3,2.01,0.92,2.67c0.61,0.66,1.46,1.13,2.56,1.41S612.06,407.59,613.55,407.59z"/>
		<path class="st0" d="M673.25,410.77c-0.46,0.9-1.19,1.86-2.18,2.87c-0.99,1.01-2.27,1.88-3.84,2.6s-3.48,1.08-5.73,1.08
			c-2.95,0-5.37-0.62-7.24-1.87c-1.88-1.24-3.26-2.9-4.13-4.98s-1.32-4.34-1.32-6.8c0-1.34,0.02-2.77,0.06-4.3
			c0.04-1.52,0.08-3.04,0.13-4.54c0.05-1.5,0.1-2.92,0.16-4.26c0.06-1.34,0.12-2.53,0.17-3.57c0.05-1.04,0.08-1.83,0.11-2.4
			c-1.9,0.2-3.68,0.42-5.32,0.66c-1.65,0.24-2.78,0.43-3.38,0.55c-0.24-1.34-0.43-2.73-0.57-4.15c-0.13-1.43-0.23-2.66-0.27-3.71
			s-0.07-1.7-0.07-1.94c1.41-0.19,2.93-0.37,4.54-0.53c1.61-0.16,3.3-0.27,5.08-0.35c-0.02-0.58-0.05-1.5-0.09-2.74
			c-0.04-1.24-0.07-2.37-0.09-3.37c-0.02-0.9-0.07-1.81-0.15-2.72c-0.07-0.92-0.13-1.65-0.18-2.21l10.83-0.95
			c0,0.29,0.01,0.98,0.02,2.05c0.01,1.07,0.02,2.37,0.02,3.88c0,0.76,0.01,1.63,0.04,2.62c0.02,0.99,0.05,1.96,0.07,2.91
			c0.8-0.05,1.74-0.1,2.82-0.15c1.07-0.05,1.93-0.09,2.56-0.11c1.02-0.05,1.95-0.08,2.78-0.09c0.83-0.01,1.52-0.02,2.07-0.02
			c0.55,0,0.92,0.01,1.12,0.04c0.15,1.15,0.24,2.61,0.29,4.39c0.05,1.78,0.07,3.34,0.07,4.68c-0.24-0.02-1.04-0.01-2.38,0.04
			c-1.34,0.05-2.66,0.1-3.95,0.15c-0.9,0.02-1.9,0.08-3,0.17c-1.1,0.08-1.96,0.15-2.6,0.2c-0.02,0.51-0.05,1.21-0.09,2.1
			c-0.04,0.89-0.07,1.89-0.11,3c-0.04,1.11-0.07,2.26-0.11,3.44s-0.07,2.32-0.09,3.42c-0.02,1.1-0.04,2.07-0.04,2.93
			c0,1.61,0.08,3.05,0.24,4.33c0.16,1.28,0.51,2.29,1.06,3.04s1.4,1.12,2.54,1.12c0.76,0,1.4-0.22,1.94-0.66
			c0.54-0.44,0.98-0.96,1.33-1.55s0.66-1.13,0.93-1.59c0.32,0.44,0.76,1.02,1.34,1.74c0.57,0.72,1.18,1.47,1.83,2.25
			c0.65,0.78,1.23,1.48,1.76,2.08S673.08,410.55,673.25,410.77z"/>
		<path class="st0" d="M697.03,416.37c-6.46,0-11.33-1.71-14.6-5.14c-3.27-3.43-4.9-8.41-4.9-14.94c0-4.34,0.84-7.96,2.52-10.87
			s4.02-5.08,7.01-6.55c2.99-1.46,6.44-2.19,10.37-2.19c4,0,7.32,0.91,9.97,2.74c2.65,1.83,4.63,4.35,5.94,7.57
			c1.32,3.22,1.98,6.94,1.98,11.16c0,3.68-0.71,6.89-2.12,9.62c-1.42,2.73-3.48,4.85-6.2,6.35
			C704.28,415.62,700.96,416.37,697.03,416.37z M696.63,405.87c1.34,0,2.53-0.23,3.57-0.7c1.04-0.46,1.91-1.13,2.63-1.99
			c0.72-0.87,1.26-1.88,1.63-3.05c0.37-1.17,0.55-2.45,0.55-3.84c0-2.17-0.31-4.09-0.93-5.76s-1.54-2.98-2.76-3.92
			c-1.22-0.94-2.71-1.41-4.46-1.41c-1.93,0-3.5,0.49-4.72,1.46c-1.22,0.98-2.12,2.25-2.69,3.82c-0.57,1.57-0.86,3.25-0.86,5.03
			c0,3,0.69,5.48,2.07,7.43C692.02,404.89,694.02,405.87,696.63,405.87z"/>
		<path class="st0" d="M731.02,382.78c0.56-1.1,1.42-2.15,2.58-3.15c1.16-1,2.54-1.82,4.13-2.45c1.6-0.63,3.3-0.95,5.1-0.95
			c1.1,0,2.21,0.11,3.33,0.33c1.12,0.22,1.94,0.51,2.45,0.88l-2.27,11.63c-0.54-0.22-1.23-0.46-2.08-0.71
			c-0.85-0.26-1.83-0.38-2.93-0.38c-1.12,0-2.21,0.18-3.27,0.55c-1.06,0.37-2.04,0.89-2.95,1.57s-1.7,1.5-2.38,2.45
			c0.24,1.44,0.52,3.25,0.82,5.43s0.59,4.43,0.86,6.75c0.27,2.32,0.49,4.43,0.66,6.33c0.17,1.9,0.26,3.29,0.26,4.17
			c-1.71,0.22-3.68,0.37-5.93,0.44s-4.4,0.11-6.47,0.11c0-2.05-0.06-4.38-0.17-7.01c-0.11-2.62-0.26-5.35-0.46-8.19
			c-0.2-2.84-0.43-5.65-0.71-8.41c-0.28-2.77-0.6-5.33-0.95-7.7c-0.35-2.37-0.73-4.38-1.12-6.04c1.17-0.34,2.46-0.66,3.88-0.95
			c1.41-0.29,2.69-0.53,3.84-0.71c1.15-0.18,1.88-0.29,2.2-0.31c0.29,0.68,0.62,1.69,0.99,3.02
			C730.8,380.8,730.99,381.91,731.02,382.78z"/>
		<path class="st0" d="M767.12,418.45c-2.88,0-5.5-0.35-7.87-1.04s-4.37-1.51-6.02-2.43c-1.65-0.93-2.83-1.78-3.57-2.56
			c0.15-0.44,0.43-1.11,0.86-2.01c0.43-0.9,0.93-1.88,1.52-2.93c0.59-1.05,1.17-2.02,1.76-2.93c0.59-0.9,1.11-1.57,1.57-2.01
			c1.17,1,2.44,1.98,3.8,2.94c1.37,0.96,2.77,1.75,4.21,2.36s2.78,0.91,4.02,0.91c0.98,0,1.85-0.13,2.63-0.38s1.4-0.64,1.85-1.15
			c0.45-0.51,0.68-1.15,0.68-1.9c0-0.88-0.42-1.73-1.26-2.54c-0.84-0.82-1.92-1.59-3.24-2.32c-1.32-0.73-2.69-1.39-4.13-1.98
			c-1.98-0.81-3.82-1.74-5.52-2.82c-1.71-1.07-3.09-2.41-4.13-4.02c-1.05-1.61-1.57-3.61-1.57-6c0-2.44,0.72-4.49,2.16-6.15
			c1.44-1.66,3.32-2.91,5.65-3.77c2.33-0.85,4.81-1.28,7.44-1.28c2.54,0,5.1,0.35,7.68,1.04c2.58,0.7,4.69,1.69,6.33,2.98
			c-0.15,0.46-0.46,1.17-0.93,2.12s-1.05,1.97-1.72,3.05c-0.67,1.09-1.4,2.08-2.18,2.98c-0.98-0.85-2.23-1.67-3.75-2.45
			c-1.52-0.78-3.1-1.17-4.74-1.17c-0.83,0-1.65,0.09-2.47,0.27c-0.82,0.18-1.49,0.49-2.01,0.91c-0.53,0.43-0.79,1.03-0.79,1.81
			c0,0.71,0.28,1.35,0.84,1.92c0.56,0.57,1.38,1.13,2.47,1.67c1.08,0.54,2.36,1.1,3.82,1.68c1.46,0.58,2.95,1.27,4.46,2.07
			c1.51,0.79,2.91,1.74,4.19,2.84c1.28,1.1,2.31,2.37,3.09,3.82c0.78,1.45,1.17,3.12,1.17,4.99c0,3-0.75,5.5-2.25,7.5
			c-1.5,2-3.48,3.49-5.94,4.48C772.78,417.96,770.08,418.45,767.12,418.45z"/>
	</g>
</g>
<g>
	<path class="st1" d="M211.79,423.44l-66.64-68.42c-7.12-7.31-2.79-19.61,7.34-20.85l48.51-5.91c8.41-1.03,13.31-10.04,9.59-17.65
		l-17.22-35.26c-4.18-8.55,2.5-18.41,11.99-17.71l74.49,5.5c9.28,0.68,14.49,11.01,9.52,18.88l-44.71,70.87
		c-0.87,1.37-1.45,2.9-1.73,4.5l-10.16,59.52C231.08,426.85,218.83,430.67,211.79,423.44z"/>
	<path class="st2" d="M183.52,299.88l-36.31-85.98c-2.59-6.13-9.91-10.6-18.23-11.12l-18.09-1.14
		c-14.49-0.91-33.61,16.55-27.23,26.76l54.4,87.12c3.85,6.17,22,3.42,30.6,2.64h0C180.19,317.11,187.17,308.53,183.52,299.88z"/>
	<path class="st3" d="M275.1,179.28l1.43,60.73c0.18,7.48,5.71,13.75,13.11,14.86l75.97,11.39c6.01,0.9,11.99-1.82,15.26-6.95
		l36.69-57.55c5.24-8.21,1.62-19.16-7.47-22.65l-20.66-7.92c-7.66-2.94-16.27,0.65-19.59,8.15l-14.89,25.29
		c-2.62,5.93-8.69,9.58-15.16,9.13l-12.42-0.87c-8.25-0.58-15.87-7.78-15.61-16.05l-5.88-17.43c0.3-9.65-8.25-17.19-17.78-15.69l0,0
		C280.47,164.92,274.91,171.57,275.1,179.28z"/>
	<path class="st4" d="M334.93,99.98l-82.44,4.73c-0.97,0.06-1.95,0.01-2.92-0.14l-36.39-5.64c-9.59-1.49-17.69,7.09-15.67,16.58
		l2.08,9.76c1.47,6.89,7.87,11.57,14.88,10.89l87.4-8.5c4.85-0.47,9.59,1.64,12.48,5.56l5.34,7.23c3.51,4.75,4.37,10.95,2.3,16.48v0
		c-3.88,10.37,5.37,20.88,16.15,18.34l0,0c6.17-1.46,10.57-6.92,10.67-13.26l0.75-47.98C349.7,105.98,342.97,99.52,334.93,99.98z"/>
	<path class="st5" d="M150.33,181.79l-0.64,5.53c-1.74,14.91,9.4,28.22,24.38,29.14h0c5.91,0.36,11.52,2.72,15.91,6.68l14.1,12.71
		c2.67,2.41,5.81,4.24,9.23,5.38l4.08,1.36c16.01,5.35,32.82-5.65,34.34-22.46l4.15-45.92c1.61-17.85-14.79-32-32.21-27.78
		l-53.51,12.96C159.51,161.98,151.59,170.91,150.33,181.79z"/>
</g>
</svg>
